<?xml version="1.0" encoding="UTF-8" standalone="no"?>
<!-- Created with Inkscape (http://www.inkscape.org/) -->

<svg
   width="128mm"
   height="128mm"
   viewBox="0 0 128 128"
   version="1.1"
   id="svg1"
   xml:space="preserve"
   xmlns="http://www.w3.org/2000/svg"
   xmlns:svg="http://www.w3.org/2000/svg"><defs
     id="defs1"><linearGradient
       id="swatch58"><stop
         style="stop-color:#000000;stop-opacity:1;"
         offset="0"
         id="stop58" /></linearGradient><style
       id="style5010">.cls-1{fill:#fff;}.cls-2{fill:#335899;}.cls-3{fill:#fefefe;}.cls-4{fill:#335898;}.cls-5{fill:#34599a;}.cls-6{fill:#355999;}.cls-7{fill:#345899;}.cls-8{fill:#fdfdfe;}.cls-9{fill:#91b7d2;}.cls-10{fill:#345898;}.cls-11{fill:#c0c2d4;}.cls-12{fill:#f9fafb;}.cls-13{fill:#abcee1;}.cls-14{fill:#3a5c9b;}.cls-15{fill:#45629d;}.cls-16{fill:#4a669f;}.cls-17{fill:#fcfcfd;}.cls-18{fill:#f6f9f9;}.cls-19{fill:#afcddd;}.cls-20{fill:#fafbfc;}</style><style
       id="style1">.cls-1{fill:#fff;}.cls-2{fill:#fefefe;}.cls-3{fill:#eb6e6f;}.cls-4{fill:#efd3d5;}.cls-5{fill:#292626;}.cls-6{fill:#201c1c;}.cls-7{fill:#030203;}.cls-8{fill:#040303;}.cls-9{fill:#060404;}.cls-10{fill:#ec6e6f;}.cls-11{fill:#eb6f71;}.cls-12{fill:#242424;}.cls-13{fill:#171212;}.cls-14{fill:#252121;}.cls-15{fill:#383636;}.cls-16{fill:#f4cccc;}.cls-17{fill:#eb6f70;}.cls-18{fill:#eb7071;}.cls-19{fill:#eb7273;}.cls-20{fill:#eb7172;}.cls-21{fill:#eb7173;}.cls-22{fill:#eb8789;}.cls-23{fill:#f3d6d5;}.cls-24{fill:#f0babc;}.cls-25{fill:#ec999a;}.cls-26{fill:#eea0a1;}.cls-27{fill:#e0dadb;}.cls-28{fill:#0d0b0b;}.cls-29{fill:#eda5a6;}.cls-30{fill:#ea9698;}.cls-31{fill:#efb4b7;}.cls-32{fill:#637373;}.cls-33{fill:#141212;}.cls-34{fill:#151212;}.cls-35{fill:#2f1d1d;}.cls-36{fill:#abaeae;}.cls-37{fill:#340909;}.cls-38{fill:#f2cacc;}.cls-39{fill:#ec888a;}.cls-40{fill:#e97f81;}.cls-41{fill:#eeb8ba;}.cls-42{fill:#0c0b0b;}.cls-43{fill:#f1c6c8;}.cls-44{fill:#f4dadb;}.cls-45{fill:#e98789;}.cls-46{fill:#eca0a1;}.cls-47{fill:#e19ea0;}.cls-48{fill:#e7aaac;}.cls-49{fill:#e29192;}.cls-50{fill:#ebafb2;}.cls-51{fill:#e7787a;}.cls-52{fill:#e4b3b4;}.cls-53{fill:#c8dada;}.cls-54{fill:#cb9d9e;}.cls-55{fill:#d8a0a2;}.cls-56{fill:#d89ea0;}.cls-57{fill:#f1c0c2;}.cls-58{fill:#e1bbbb;}.cls-59{fill:#be9a9d;}.cls-60{fill:#8e6f72;}.cls-61{fill:#c08f91;}.cls-62{fill:#e0dcdb;}.cls-63{fill:#ccccd0;}.cls-64{fill:#d5c1bf;}.cls-65{fill:#143c3b;}.cls-66{fill:#abadae;}.cls-67{fill:#d1c7cb;}.cls-68{fill:#cd9da0;}.cls-69{fill:#d0c3c6;}.cls-70{fill:#343f3e;}.cls-71{fill:#536f6f;}.cls-72{fill:#a7d4d5;}.cls-73{fill:#dc999a;}.cls-74{fill:#cccaca;}.cls-75{fill:#797a7a;}.cls-76{fill:#d8cfd0;}.cls-77{fill:#e98b8c;}.cls-78{fill:#e9999a;}.cls-79{fill:#e1bec0;}.cls-80{fill:#df8889;}.cls-81{fill:#e6b5b7;}.cls-82{fill:#d6b9bb;}.cls-83{fill:#dec5c7;}.cls-84{fill:#d7d6d6;}.cls-85{fill:#e0e8e8;}.cls-86{fill:#e9b1b2;}.cls-87{fill:#f2e8e8;}.cls-88{fill:#dedddd;}.cls-89{fill:#738585;}.cls-90{fill:#435050;}.cls-91{fill:#d8e0e0;}.cls-92{fill:#cebabc;}.cls-93{fill:#d49596;}.cls-94{fill:#e58385;}.cls-95{fill:#e87c7e;}.cls-96{fill:#d7a2a4;}.cls-97{fill:#c8d1d1;}.cls-98{fill:#b2cece;}.cls-99{fill:#df9698;}.cls-100{fill:#e9d8d9;}.cls-101{fill:#daefef;}.cls-102{fill:#7f7c7d;}.cls-103{fill:#e4f5f5;}.cls-104{fill:#d87577;}.cls-105{fill:#dd8688;}.cls-106{fill:#c0a5a5;}.cls-107{fill:#555454;}.cls-108{fill:#e9c5c9;}.cls-109{fill:#a09a9a;}.cls-110{fill:#cd8f90;}.cls-111{fill:#f0a3a7;}.cls-112{fill:#1f1a1a;}.cls-113{fill:#1b1616;}.cls-114{fill:#ededed;}.cls-115{fill:#f6d7d9;}.cls-116{fill:#191616;}.cls-117{fill:#2b2626;}.cls-118{fill:#7e8585;}.cls-119{fill:#ed9697;}.cls-120{fill:#efb5b8;}.cls-121{fill:#9e7777;}.cls-122{fill:#ec9394;}.cls-123{fill:#f5fafa;}.cls-124{fill:#adc6c6;}.cls-125{fill:#f3d1d3;}.cls-126{fill:#f0dcdc;}.cls-127{fill:#e6c1c5;}.cls-128{fill:#e7f8f8;}.cls-129{fill:#9f6969;}.cls-130{fill:#b4e6e6;}</style></defs><g
     id="layer1"
     transform="translate(-49.537012,-6.3541799)"><g
       id="g8"
       transform="matrix(2.4444344,0,0,2.4444344,-761.93003,-35.900321)"><path
         id="path6630"
         d="m 376.7557,22.89758 c -2.25055,-0.07502 -3.45117,1.425979 -4.42646,3.151422 a 21.905621,21.905621 0 0 0 -1.72467,4.351301 53.263672,53.263672 0 0 0 -1.35014,7.051721 c -0.37509,3.375866 0.74989,6.151133 4.12573,7.576494 a 5.02629,5.02629 0 0 1 3.1514,3.676191 46.286879,46.286879 0 0 1 0.8993,5.626348 4.5761745,4.5761745 0 0 1 -3.37556,4.876073 c -0.30007,0.15 -1.05097,-0.299713 -1.05097,-0.524769 a 27.307014,27.307014 0 0 1 -0.29923,-4.276138 c -0.0752,-0.825217 0.0747,-1.726276 0,-2.551483 a 1.6504236,1.6504236 0 0 0 -1.275,-1.500547 1.800462,1.800462 0 0 0 -2.02539,0.375838 4.6511937,4.6511937 0 0 0 -1.0509,1.874978 16.954351,16.954351 0 0 0 0.37586,8.85294 6.00154,6.00154 0 0 0 1.42393,2.399758 3.225828,3.225828 0 0 0 3.60104,1.05093 16.279177,16.279177 0 0 0 6.3766,-3.826523 7.5019254,7.5019254 0 0 0 1.95153,-3.825136 22.430756,22.430756 0 0 1 0.59992,-2.401147 V 54.63028 c -0.18618,-0.425604 -0.26554,-0.870602 -0.29782,-1.323764 a 19.580024,19.580024 0 0 1 -0.15305,-0.701553 21.230448,21.230448 0 0 0 -2.39981,-9.001873 c -1.42547,-1.200288 -2.77528,-2.626265 -4.72579,-3.151399 a 1.5754042,1.5754042 0 0 1 -1.12616,-1.649485 21.530526,21.530526 0 0 1 2.02539,-10.803082 c 0.60017,-1.050269 1.65045,-1.125289 2.17562,0 a 8.327137,8.327137 0 0 1 0.9758,3.001088 c 0,2.250577 -0.22522,4.50048 -0.37586,6.751056 0,0.525134 -0.22342,0.975263 -0.22342,1.425379 0,0.450115 -0.15049,1.200468 0.52478,1.500545 a 1.2753273,1.2753273 0 0 0 1.57562,-0.374437 l 0.6,-0.526166 c 0.37303,-2.176121 0.75629,-4.395821 1.17195,-6.589585 0.0532,-0.456788 0.12481,-0.911869 0.25321,-1.361348 1.3e-4,-4.39e-4 -1.3e-4,-9.52e-4 0,-0.0014 v -1.724639 a 2.4756354,2.4756354 0 0 1 -0.28413,-0.854669 14.028601,14.028601 0 0 1 -0.24042,-0.796207 16.129139,16.129139 0 0 0 -0.7502,-2.025316 c -0.9757,-1.875484 -2.40191,-3.450846 -4.65244,-3.525863 z"
         style="display:inline;fill:#335899;stroke:#ffffff;stroke-width:5.43;stroke-linejoin:round;stroke-miterlimit:4;stroke-dasharray:none;stroke-opacity:0.8;shape-rendering:crispEdges" /><path
         style="display:inline;fill:#335899;stroke:none;stroke-width:0.750192;stroke-opacity:0.972549;shape-rendering:crispEdges"
         d="m 376.7557,22.89758 c -2.25055,-0.07502 -3.45117,1.425979 -4.42646,3.151422 a 21.905621,21.905621 0 0 0 -1.72467,4.351301 53.263672,53.263672 0 0 0 -1.35014,7.051721 c -0.37509,3.375866 0.74989,6.151133 4.12573,7.576494 a 5.02629,5.02629 0 0 1 3.1514,3.676191 46.286879,46.286879 0 0 1 0.8993,5.626348 4.5761745,4.5761745 0 0 1 -3.37556,4.876073 c -0.30007,0.15 -1.05097,-0.299713 -1.05097,-0.524769 a 27.307014,27.307014 0 0 1 -0.29923,-4.276138 c -0.0752,-0.825217 0.0747,-1.726276 0,-2.551483 a 1.6504236,1.6504236 0 0 0 -1.275,-1.500547 1.800462,1.800462 0 0 0 -2.02539,0.375838 4.6511937,4.6511937 0 0 0 -1.0509,1.874978 16.954351,16.954351 0 0 0 0.37586,8.85294 6.00154,6.00154 0 0 0 1.42393,2.399758 3.225828,3.225828 0 0 0 3.60104,1.05093 16.279177,16.279177 0 0 0 6.3766,-3.826523 7.5019254,7.5019254 0 0 0 1.95153,-3.825136 22.430756,22.430756 0 0 1 0.59992,-2.401147 V 54.63028 c -0.18618,-0.425604 -0.26554,-0.870602 -0.29782,-1.323764 a 19.580024,19.580024 0 0 1 -0.15305,-0.701553 21.230448,21.230448 0 0 0 -2.39981,-9.001873 c -1.42547,-1.200288 -2.77528,-2.626265 -4.72579,-3.151399 a 1.5754042,1.5754042 0 0 1 -1.12616,-1.649485 21.530526,21.530526 0 0 1 2.02539,-10.803082 c 0.60017,-1.050269 1.65045,-1.125289 2.17562,0 a 8.327137,8.327137 0 0 1 0.9758,3.001088 c 0,2.250577 -0.22522,4.50048 -0.37586,6.751056 0,0.525134 -0.22342,0.975263 -0.22342,1.425379 0,0.450115 -0.15049,1.200468 0.52478,1.500545 a 1.2753273,1.2753273 0 0 0 1.57562,-0.374437 l 0.6,-0.526166 c 0.37303,-2.176121 0.75629,-4.395821 1.17195,-6.589585 0.0532,-0.456788 0.12481,-0.911869 0.25321,-1.361348 1.3e-4,-4.39e-4 -1.3e-4,-9.52e-4 0,-0.0014 v -1.724639 a 2.4756354,2.4756354 0 0 1 -0.28413,-0.854669 14.028601,14.028601 0 0 1 -0.24042,-0.796207 16.129139,16.129139 0 0 0 -0.7502,-2.025316 c -0.9757,-1.875484 -2.40191,-3.450846 -4.65244,-3.525863 z"
         id="path5041" /></g><text
       xml:space="preserve"
       style="font-size:14.1459px;line-height:1;font-family:'Mayenne Sans';-inkscape-font-specification:'Mayenne Sans';text-align:center;text-decoration-color:#000000;letter-spacing:0px;word-spacing:0px;writing-mode:lr-tb;direction:ltr;text-anchor:middle;fill:#335899;fill-opacity:1;stroke:#ffffff;stroke-width:8.40022;stroke-dasharray:none;stroke-opacity:0.8;paint-order:stroke markers fill"
       x="115.27216"
       y="116.65771"
       id="text2-3"><tspan
         id="tspan2-5"
         style="font-style:normal;font-variant:normal;font-weight:normal;font-stretch:normal;font-size:87.2332px;font-family:Grotesk;-inkscape-font-specification:'Grotesk, Normal';font-variant-ligatures:normal;font-variant-caps:normal;font-variant-numeric:normal;font-variant-east-asian:normal;fill:#335899;fill-opacity:1;stroke:#ffffff;stroke-width:8.40022;stroke-dasharray:none;stroke-opacity:0.8"
         x="115.27216"
         y="116.65771">4</tspan></text><text
       xml:space="preserve"
       style="font-size:14.1459px;line-height:1;font-family:'Mayenne Sans';-inkscape-font-specification:'Mayenne Sans';text-align:center;text-decoration-color:#000000;letter-spacing:0px;word-spacing:0px;writing-mode:lr-tb;direction:ltr;text-anchor:middle;fill:#335899;fill-opacity:1;stroke:#ffffff;stroke-width:8.40022;stroke-dasharray:none;stroke-opacity:0.8;paint-order:stroke markers fill"
       x="87.989517"
       y="79.248489"
       id="text2-3-2-0"><tspan
         id="tspan2-5-7-6"
         style="font-style:normal;font-variant:normal;font-weight:normal;font-stretch:normal;font-size:87.2332px;font-family:Grotesk;-inkscape-font-specification:'Grotesk, Normal';font-variant-ligatures:normal;font-variant-caps:normal;font-variant-numeric:normal;font-variant-east-asian:normal;fill:#335899;fill-opacity:1;stroke:#ffffff;stroke-width:8.40022;stroke-dasharray:none;stroke-opacity:0.8"
         x="87.989517"
         y="79.248489">1</tspan></text><g
       id="g7"
       transform="matrix(2.6746151,0,0,2.6746151,-115.81356,-48.516944)"><path
         d="m 66.596757,25.082975 c -0.108867,0.007 -0.223301,0.0279 -0.345209,0.06542 a 2.2505776,2.2505776 0 0 0 -1.650878,2.100487 c -0.07504,0.975249 -0.07532,1.950671 -0.150334,2.925923 -0.225058,4.65119 -0.524922,8.401685 -0.599939,13.953109 -0.07502,5.551417 -0.150184,11.02834 -0.07516,16.579768 0,2.700691 1.876107,3.975831 4.576801,3.450692 L 74.35282,62.88333 a 1.6504236,1.6504236 0 0 0 0.375832,-0.599938 c 1.275328,-2.55065 0.374561,-4.201115 -2.40115,-4.276133 h -3.37553 c 0,-0.825217 -0.150333,-1.651107 -0.150333,-2.476318 V 45.103689 c -0.07477,-6.204323 -0.1498,-12.409103 -0.150333,-18.613426 0.0106,0.01832 -0.01714,-0.01023 -0.299274,-0.292315 -0.525137,-0.525141 -0.993215,-1.164205 -1.755275,-1.114973 z m 2.05455,1.407283 c -0.0031,-0.0054 0.0093,0.0021 0,-0.01104 0,0.0037 -10e-7,0.0075 0,0.01104 z m 0,-0.01104 c -2e-6,-0.01857 0,-0.03712 0,-0.05568 -0.05862,-0.0293 -0.02618,0.01859 0,0.05568 z"
         style="display:inline;fill:#345899;stroke:#ffffff;stroke-width:5.43;stroke-linejoin:round;stroke-miterlimit:4;stroke-dasharray:none;stroke-opacity:0.8;shape-rendering:crispEdges"
         id="path6644" /><path
         id="path5055"
         style="display:inline;fill:#345899;stroke:none;stroke-width:0.750192;stroke-opacity:0.972549;shape-rendering:crispEdges"
         d="m 66.596757,25.082975 c -0.108867,0.007 -0.223301,0.0279 -0.345209,0.06542 a 2.2505776,2.2505776 0 0 0 -1.650878,2.100487 c -0.07504,0.975249 -0.07532,1.950671 -0.150334,2.925923 -0.225058,4.65119 -0.524922,8.401685 -0.599939,13.953109 -0.07502,5.551417 -0.150184,11.02834 -0.07516,16.579768 0,2.700691 1.876107,3.975831 4.576801,3.450692 L 74.35282,62.88333 a 1.6504236,1.6504236 0 0 0 0.375832,-0.599938 c 1.275328,-2.55065 0.374561,-4.201115 -2.40115,-4.276133 h -3.37553 c 0,-0.825217 -0.150333,-1.651107 -0.150333,-2.476318 V 45.103689 c -0.07477,-6.204323 -0.1498,-12.409103 -0.150333,-18.613426 0.0106,0.01832 -0.01714,-0.01023 -0.299274,-0.292315 -0.525137,-0.525141 -0.993215,-1.164205 -1.755275,-1.114973 z m 2.05455,1.407283 c -0.0031,-0.0054 0.0093,0.0021 0,-0.01104 0,0.0037 -10e-7,0.0075 0,0.01104 z m 0,-0.01104 c -2e-6,-0.01857 0,-0.03712 0,-0.05568 -0.05862,-0.0293 -0.02618,0.01859 0,0.05568 z" /></g></g></svg>
